<?xml version="1.0" encoding="utf-8"?>
<!-- Generator: Adobe Illustrator 24.3.0, SVG Export Plug-In . SVG Version: 6.00 Build 0)  -->
<svg version="1.1" id="Слой_1" xmlns="http://www.w3.org/2000/svg" xmlns:xlink="http://www.w3.org/1999/xlink" x="0px" y="0px"
	 viewBox="0 0 30 35" style="enable-background:new 0 0 30 35;" xml:space="preserve">
<style type="text/css">
	.st0{clip-path:url(#SVGID_2_);}
	.st1{fill:#E5E5E5;}
</style>
<g>
	<defs>
		<rect id="SVGID_1_" x="5" y="8" width="20" height="20"/>
	</defs>
	<clipPath id="SVGID_2_">
		<use xlink:href="#SVGID_1_"  style="overflow:visible;"/>
	</clipPath>
	<g class="st0">
		<path class="st1" d="M21.9,11.7c-1.3-0.6-2.6-1-4.1-1.2c0,0,0,0,0,0c0,0,0,0,0,0c-0.2,0.3-0.4,0.7-0.5,1c-1.5-0.2-3.1-0.2-4.6,0
			c-0.2-0.4-0.3-0.7-0.5-1c0,0,0,0,0,0c0,0,0,0,0,0c-1.4,0.2-2.8,0.7-4.1,1.2c0,0,0,0,0,0c-2.6,3.8-3.3,7.5-3,11.2c0,0,0,0,0,0
			c0,0,0,0,0,0c1.5,1.1,3.2,1.9,5,2.5c0,0,0,0,0,0c0,0,0,0,0,0c0.4-0.5,0.7-1.1,1-1.6c0,0,0,0,0,0c0,0,0,0,0,0c0,0,0,0,0,0
			c0,0,0,0,0,0c-0.5-0.2-1.1-0.4-1.6-0.7c0,0,0,0,0,0c0,0,0,0,0,0c0,0,0,0,0,0c0,0,0,0,0,0c0.1-0.1,0.2-0.2,0.3-0.2c0,0,0,0,0,0
			c0,0,0,0,0,0c3.3,1.5,6.8,1.5,10.1,0c0,0,0,0,0,0c0,0,0,0,0,0c0.1,0.1,0.2,0.2,0.3,0.2c0,0,0,0,0,0c0,0,0,0,0,0c0,0,0,0,0,0
			c0,0,0,0,0,0c-0.5,0.3-1,0.5-1.6,0.7c0,0,0,0,0,0c0,0,0,0,0,0c0,0,0,0,0,0c0,0,0,0,0,0c0.3,0.6,0.6,1.1,1,1.6c0,0,0,0,0,0
			c0,0,0,0,0,0c1.8-0.5,3.5-1.4,5-2.5c0,0,0,0,0,0c0,0,0,0,0,0C25.3,18.7,24.2,15,21.9,11.7C22,11.8,21.9,11.7,21.9,11.7z
			 M11.7,20.7c-1,0-1.8-0.9-1.8-2c0-1.1,0.8-2,1.8-2c1,0,1.8,0.9,1.8,2C13.5,19.8,12.7,20.7,11.7,20.7L11.7,20.7z M18.3,20.7
			c-1,0-1.8-0.9-1.8-2c0-1.1,0.8-2,1.8-2c1,0,1.8,0.9,1.8,2C20.1,19.8,19.3,20.7,18.3,20.7L18.3,20.7z"/>
	</g>
</g>
</svg>
