<?xml version="1.0" encoding="utf-8"?>
<!-- Generator: Adobe Illustrator 24.3.0, SVG Export Plug-In . SVG Version: 6.00 Build 0)  -->
<svg version="1.1" id="Слой_2" xmlns="http://www.w3.org/2000/svg" xmlns:xlink="http://www.w3.org/1999/xlink" x="0px" y="0px"
	 viewBox="0 0 408.9 406.2" style="enable-background:new 0 0 408.9 406.2;" xml:space="preserve">
<style type="text/css">
	.st0{fill:url(#SVGID_1_);}
</style>
<linearGradient id="SVGID_1_" gradientUnits="userSpaceOnUse" x1="70.8109" y1="322.3306" x2="360.773" y2="125.151">
	<stop  offset="0" style="stop-color:#EFB92E"/>
	<stop  offset="7.909298e-03" style="stop-color:#EFB82E"/>
	<stop  offset="0.3384" style="stop-color:#F2842D"/>
	<stop  offset="0.6257" style="stop-color:#F45E2C"/>
	<stop  offset="0.8558" style="stop-color:#F6472B"/>
	<stop  offset="1" style="stop-color:#F63E2B"/>
</linearGradient>
<path class="st0" d="M375.6,223.1c-18.1-47.5-61.6-86-67-89.7c0,0,18.1-53.9,3.2-115.5c0,0-63.8,28.1-87.8,56.6
	c0,0-20.8-27.6-31.2-37.1c0,0-19,31.7-30.3,70.2c0,0-14.9,5-17.2,9.1c-2.3,4.1-31.7,46-31.7,46l-98.3,33.3c0,0-0.5,29.4,17.2,48.5
	s28.5,28.1,57.1,34.9c28.5,6.8,79.2,5.4,85.6,8.6c6.3,3.2,31,10.6,37.8,38.8c6.8,28.2-4.8,68.9-4.8,68.9s44.8-19,43.5-80.5
	c0,0,30.9,2.7,52,20.4c0,0-7.8-32.3-35.7-54.3c-27.8-22.1-70.3-14.9-70.3-14.9s-66.2,5.1-77.1,2.4c0,0-73.7-2.4-88-51.3l-1.1-4.5
	l1.9,1.1c0,0,36.2,34.6,86.5,26.4s86.9-17.1,111.8-26.4c24.9-9.4,77-10.6,82.4,0c0,0-53.4,13.1-62.9,27.7c0,0,93.3-1.2,139,65.8
	C390,307.3,393.7,270.6,375.6,223.1z M168.5,174.5c-11.8,4.9-22.3,4.4-27.5,3.8c-0.9-36.2,45.1-15.6,45.1-15.6
	C182.7,166,176.9,171,168.5,174.5z"/>
</svg>
