<?xml version="1.0" encoding="utf-8"?>
<!-- Generator: Adobe Illustrator 24.3.0, SVG Export Plug-In . SVG Version: 6.00 Build 0)  -->
<svg version="1.1" id="Слой_1" xmlns="http://www.w3.org/2000/svg" xmlns:xlink="http://www.w3.org/1999/xlink" x="0px" y="0px"
	 viewBox="0 0 30 35" style="enable-background:new 0 0 30 35;" xml:space="preserve">
<style type="text/css">
	.st0{clip-path:url(#SVGID_2_);}
	.st1{fill:#E5E5E5;}
</style>
<g>
	<defs>
		<rect id="SVGID_1_" x="5" y="8" width="20" height="20"/>
	</defs>
	<clipPath id="SVGID_2_">
		<use xlink:href="#SVGID_1_"  style="overflow:visible;"/>
	</clipPath>
	<g class="st0">
		<path class="st1" d="M16.3,18c0,3.1-2.5,5.6-5.6,5.6c-0.7,0-1.5-0.1-2.2-0.4c-0.7-0.3-1.3-0.7-1.8-1.2c-0.5-0.5-0.9-1.1-1.2-1.8
			C5.1,19.5,5,18.7,5,18c0-3.1,2.5-5.6,5.6-5.6c0.7,0,1.5,0.1,2.2,0.4s1.3,0.7,1.8,1.2c0.5,0.5,0.9,1.1,1.2,1.8
			C16.1,16.5,16.3,17.3,16.3,18L16.3,18z M22.5,18c0,2.9-1.3,5.3-2.8,5.3c-1.6,0-2.8-2.4-2.8-5.3c0-2.9,1.3-5.3,2.8-5.3
			C21.2,12.7,22.5,15.1,22.5,18z M25,18c0,2.6-0.4,4.7-1,4.7c-0.5,0-1-2.1-1-4.7c0-2.6,0.4-4.7,1-4.7C24.6,13.3,25,15.4,25,18z"/>
	</g>
</g>
</svg>
