<?xml version="1.0" encoding="utf-8"?>
<!-- Generator: Adobe Illustrator 24.3.0, SVG Export Plug-In . SVG Version: 6.00 Build 0)  -->
<svg version="1.1" id="Слой_1" xmlns="http://www.w3.org/2000/svg" xmlns:xlink="http://www.w3.org/1999/xlink" x="0px" y="0px"
	 viewBox="0 0 30 35" style="enable-background:new 0 0 30 35;" xml:space="preserve">
<style type="text/css">
	.st0{fill:#E5E5E5;}
</style>
<path class="st0" d="M24.4,16.1c0-0.5-0.1-0.9-0.4-1.3c-0.3-0.4-0.6-0.7-1.1-0.9c-0.4-0.2-0.9-0.3-1.4-0.2c-0.5,0.1-0.9,0.3-1.3,0.6
	c-1.3-0.7-2.9-1.1-4.5-1.2l0.4-2.4l1.7,0.3c0.1,0.4,0.3,0.8,0.7,1.1c0.3,0.3,0.8,0.4,1.2,0.4c0.4,0,0.9-0.2,1.2-0.5
	c0.3-0.3,0.6-0.7,0.6-1.1c0.1-0.4,0-0.9-0.2-1.3c-0.2-0.4-0.6-0.7-1-0.8c-0.4-0.1-0.9-0.1-1.3,0c-0.4,0.2-0.8,0.5-1,0.9l-2.3-0.4
	c-0.2,0-0.3,0-0.5,0.1C15.1,9.5,15,9.6,15,9.8L14.5,13c-1.7,0.1-3.3,0.5-4.7,1.2c-0.5-0.4-1.1-0.6-1.8-0.6c-0.6,0-1.2,0.3-1.7,0.8
	c-0.4,0.5-0.7,1.1-0.6,1.8c0,0.6,0.3,1.3,0.8,1.7c-0.1,0.4-0.2,0.9-0.2,1.3c0,1.7,0.9,3.3,2.6,4.5c1.7,1.2,3.8,1.8,6.1,1.8
	s4.5-0.6,6.1-1.8c1.6-1.1,2.6-2.8,2.6-4.5c0-0.4-0.1-0.9-0.2-1.3c0.3-0.2,0.5-0.5,0.6-0.8C24.3,16.8,24.4,16.5,24.4,16.1L24.4,16.1z
	 M10.6,18.3c0-0.2,0.1-0.5,0.2-0.7c0.1-0.2,0.3-0.4,0.6-0.5c0.2-0.1,0.5-0.1,0.7-0.1c0.2,0,0.5,0.2,0.6,0.3c0.2,0.2,0.3,0.4,0.3,0.6
	c0,0.2,0,0.5-0.1,0.7c-0.1,0.2-0.3,0.4-0.5,0.6c-0.2,0.1-0.4,0.2-0.7,0.2c-0.3,0-0.6-0.1-0.9-0.4C10.8,19,10.6,18.6,10.6,18.3z
	 M17.9,22.3C17,22.8,16,23,15,23s-2-0.2-2.9-0.7c-0.1-0.1-0.2-0.2-0.3-0.4c0-0.2,0-0.3,0-0.5c0.1-0.1,0.2-0.2,0.3-0.3s0.3,0,0.5,0
	c0.7,0.4,1.5,0.6,2.3,0.6c0.8,0,1.6-0.2,2.3-0.6c0.1-0.1,0.3-0.1,0.5,0c0.1,0.1,0.3,0.2,0.3,0.3c0.1,0.1,0.1,0.3,0,0.5
	C18.1,22.1,18,22.2,17.9,22.3z M18.1,19.6c-0.2,0-0.5-0.1-0.7-0.2c-0.2-0.1-0.4-0.3-0.5-0.6c-0.1-0.2-0.1-0.5-0.1-0.7
	c0-0.2,0.2-0.5,0.3-0.6c0.2-0.2,0.4-0.3,0.6-0.3c0.2,0,0.5,0,0.7,0.1c0.2,0.1,0.4,0.3,0.6,0.5c0.1,0.2,0.2,0.4,0.2,0.7
	c0,0.3-0.1,0.6-0.4,0.9S18.5,19.6,18.1,19.6z"/>
</svg>
