<?xml version="1.0" standalone="no"?>
<!DOCTYPE svg PUBLIC "-//W3C//DTD SVG 20010904//EN"
 "http://www.w3.org/TR/2001/REC-SVG-20010904/DTD/svg10.dtd">
<svg version="1.0" xmlns="http://www.w3.org/2000/svg"
 width="400.000000pt" height="400.000000pt" viewBox="0 0 400.000000 400.000000"
 preserveAspectRatio="xMidYMid meet">
<metadata>
Created by potrace 1.14, written by Peter Selinger 2001-2017
</metadata>
<g transform="translate(0.000000,400.000000) scale(0.100000,-0.100000)"
fill="#000000" stroke="none">
<path d="M1239 3783 c-118 -80 -263 -180 -324 -221 -60 -41 -191 -130 -290
-197 -178 -121 -328 -224 -496 -339 l-86 -59 0 -958 c0 -865 2 -960 16 -972 9
-8 88 -63 176 -122 175 -119 346 -235 440 -300 33 -23 132 -90 220 -150 88
-60 207 -141 265 -180 229 -158 290 -197 298 -193 9 3 307 204 557 375 164
113 324 222 525 358 279 189 305 208 315 220 10 12 15 1919 5 1928 -15 12
-313 207 -316 207 -9 0 -329 -221 -331 -228 -2 -4 30 -28 70 -54 39 -26 100
-67 133 -92 l62 -45 0 -755 0 -756 -196 -135 c-247 -169 -364 -248 -626 -425
-186 -126 -210 -140 -225 -127 -9 8 -61 45 -116 82 -55 37 -140 96 -190 130
-189 131 -303 209 -385 263 -47 31 -90 61 -96 67 -6 5 -57 39 -112 75 l-101
65 -1 761 0 761 77 51 c43 28 150 101 238 162 88 60 225 155 305 209 80 55
179 123 220 151 41 28 161 110 265 181 105 71 201 137 214 146 13 10 28 21 34
25 6 4 9 9 7 11 -3 2 -80 53 -171 115 l-167 111 -213 -146z"/>
<path d="M2455 3868 c-50 -34 -146 -99 -215 -147 -69 -47 -233 -158 -365 -248
-132 -89 -260 -176 -285 -193 -25 -18 -130 -90 -235 -161 -104 -71 -197 -137
-205 -147 -13 -16 -15 -138 -15 -972 l0 -954 158 -107 159 -108 166 111 c92
61 169 113 172 115 5 4 -1 10 -47 41 -10 7 -64 44 -120 82 l-101 70 0 758 -1
757 132 90 c72 50 206 141 297 202 91 62 183 125 205 141 102 72 384 262 389
262 3 0 67 -42 143 -94 76 -52 201 -137 278 -190 134 -91 403 -274 493 -336
24 -17 47 -30 53 -30 5 0 9 -4 9 -8 0 -5 11 -14 25 -20 l25 -12 -1 -762 0
-763 -121 -80 c-67 -44 -212 -143 -323 -220 -111 -77 -286 -198 -391 -268
-318 -216 -506 -345 -515 -354 -8 -8 199 -159 304 -222 23 -14 32 -9 191 100
92 63 306 208 476 324 170 116 412 280 537 365 l228 155 1 960 c0 679 -2 963
-10 970 -6 5 -56 40 -111 77 -55 36 -158 106 -230 155 -71 49 -202 138 -290
198 -88 59 -207 141 -265 180 -58 39 -195 133 -305 207 l-201 136 -89 -60z"/>
</g>
</svg>
