<?xml version="1.0" encoding="utf-8"?>
<!-- Generator: Adobe Illustrator 24.3.0, SVG Export Plug-In . SVG Version: 6.00 Build 0)  -->
<svg version="1.1" id="Слой_1" xmlns="http://www.w3.org/2000/svg" xmlns:xlink="http://www.w3.org/1999/xlink" x="0px" y="0px"
	 viewBox="0 0 30 35" style="enable-background:new 0 0 30 35;" xml:space="preserve">
<style type="text/css">
	.st0{fill:#E5E5E5;}
</style>
<path class="st0" d="M24.7,12.1c-0.7,0.3-1.4,0.5-2.2,0.6c0.8-0.5,1.4-1.2,1.7-2.1c-0.8,0.5-1.6,0.8-2.5,0.9c-0.6-0.6-1.4-1-2.2-1.2
	c-0.8-0.1-1.7,0-2.5,0.4c-0.8,0.4-1.4,1-1.7,1.8c-0.4,0.8-0.4,1.7-0.2,2.5c-1.5-0.1-3.1-0.5-4.4-1.2c-1.4-0.7-2.6-1.7-3.6-2.9
	c-0.3,0.6-0.5,1.2-0.5,2c0,0.6,0.2,1.3,0.5,1.8c0.3,0.6,0.7,1,1.3,1.4c-0.6,0-1.2-0.2-1.8-0.5v0.1c0,0.9,0.3,1.8,0.9,2.5
	c0.6,0.7,1.4,1.2,2.2,1.3c-0.6,0.2-1.2,0.2-1.8,0.1c0.2,0.8,0.7,1.4,1.4,1.9c0.7,0.5,1.4,0.8,2.2,0.8C10.2,23.4,8.5,24,6.7,24
	c-0.3,0-0.6,0-0.9-0.1c1.8,1.1,3.8,1.7,5.9,1.7c7.1,0,11-5.9,11-11c0-0.2,0-0.3,0-0.5C23.5,13.6,24.2,12.9,24.7,12.1L24.7,12.1
	L24.7,12.1z"/>
</svg>
