<?xml version="1.0" encoding="utf-8"?>
<!-- Generator: Adobe Illustrator 24.3.0, SVG Export Plug-In . SVG Version: 6.00 Build 0)  -->
<svg version="1.1" id="Слой_2" xmlns="http://www.w3.org/2000/svg" xmlns:xlink="http://www.w3.org/1999/xlink" x="0px" y="0px"
	 viewBox="0 0 303.6 336.2" style="enable-background:new 0 0 303.6 336.2;" xml:space="preserve">
<style type="text/css">
	.st0{display:none;fill:url(#SVGID_1_);}
	.st1{fill:url(#SVGID_2_);}
</style>
<linearGradient id="SVGID_1_" gradientUnits="userSpaceOnUse" x1="-68.8467" y1="224.0125" x2="383.2618" y2="110.78">
	<stop  offset="0" style="stop-color:#150B52"/>
	<stop  offset="1" style="stop-color:#A61208"/>
</linearGradient>
<circle class="st0" cx="157.2" cy="167.4" r="233"/>
<linearGradient id="SVGID_2_" gradientUnits="userSpaceOnUse" x1="18.798" y1="167.3962" x2="295.6171" y2="167.3962">
	<stop  offset="0" style="stop-color:#942A45"/>
	<stop  offset="1" style="stop-color:#2A1136"/>
</linearGradient>
<path class="st1" d="M29.4,105.5c0,0,42.2-11.1,42.2-16.1c0,0,4.9-6,14.3-20.4c0,0,0,0,0,0c0.2-0.2,7.4-7.1,45.3-20.6
	c0,0,0.1,0,0.1-0.1C132,47,148.1,15.1,173.9,14c0,0,0.1,0,0.1,0c0.5,0.5,5,6.1,0,33.6c0,0.1,0,0.1,0.1,0.1
	c1.8,0.7,30.8,11.6,40.8,20.9c10.3,9.6,35.4,26.4,47.2,29.7c0.1,0,0.1,0.1,0.1,0.2c-0.3,0.8-2.5,4.8-12.1,4c-0.1,0-0.2,0.1-0.1,0.2
	c2,2.6,20.5,26.3,36.7,33.1c0.1,0,0.1,0.1,0.1,0.2c-0.7,0.9-5.3,6-14.9,0.1c-0.1-0.1-0.3,0-0.2,0.2c1.7,4.1,16.4,39.2,17.6,54.3
	c1.3,15.9,8.8,34.7,5.7,78.4c0,0.2-0.3,0.2-0.3,0c-1.5-9.6-12.1-71.7-32.2-105.4c-0.1-0.1-0.3,0-0.3,0.1c1.6,6.4,10.1,42.9,3.3,61.3
	c0,0.1-0.2,0.1-0.3,0c-2-6.1-27.6-78.7-101.6-101.3c-0.2,0-0.3,0.2-0.1,0.3c9.4,6.1,90.4,62.6,93.5,176.6c0,0.2-0.2,0.2-0.3,0.1
	c-3.9-10.5-43.8-114.1-131.2-159.3c-0.1-0.1-0.3,0.1-0.2,0.2c8,9.9,115.7,147.9-106.2,179.3c-0.2,0-0.2-0.2-0.1-0.3
	c6.6-3,47.3-21.8,62.5-36.8c0.1-0.1,0-0.3-0.1-0.3l-9.6,0.6c-0.2,0-0.2-0.2-0.1-0.3c4.4-2.2,29.6-15.8,39.1-36.3
	c0.1-0.2-0.1-0.3-0.2-0.2c-1.6,1.9-5.5,5.9-9.6,5.4c-0.1,0-0.2-0.1-0.1-0.2c3.5-4.5,64.9-85.5-14.6-100.7c-0.1,0-0.2,0.1-0.2,0.2
	l1.2,5c0,0.1-0.1,0.2-0.2,0.2c-1.8-1.2-11.6-7.4-26-7.2c-15.9,0.1-23.5-3.2-25.1-18.4l2.1,2c0.3,0.3,0.8,0.4,1.2,0.4l31.9-6
	c0.2,0,0.2-0.3,0-0.3L32.2,123c-0.1,0-0.3,0.1-0.3,0.3l0.4,4.2c0,0.2-0.3,0.4-0.4,0.2c-1.5-1.7-5.6-6.7-6.5-8.1
	c-1.1-1.7-0.1-3.2-3-7.2c-2.9-4-4.3-5.3-1.1-8.1c0,0,0,0,0,0c0.3-0.1,4-0.8,5.4,1C28.2,107.1,29.4,105.5,29.4,105.5z"/>
</svg>
